<?xml version="1.0" encoding="UTF-8"?>
<svg id="Capa_1" data-name="Capa 1" xmlns="http://www.w3.org/2000/svg" viewBox="0 0 200 200">
  <defs>
    <style>
      .cls-1 {
        fill: #010101;
      }

      .cls-2 {
        fill: #727070;
      }
    </style>
  </defs>
  <path class="cls-1" d="M183.17,84.23c-.7-.66-.79-1.49-.62-2.44.1-.52-.02-1.12-.17-1.64-.54-1.86-1.15-3.69-1.7-5.54-.07-.25,0-.64.15-.85.49-.64.35-1.23.03-1.87-.58-1.17-1.18-2.33-1.68-3.53-.33-.8-.38-1.56.33-2.34.9-.99.13-2.73-1.33-3.3,0,.58.11,1.19-.03,1.74-.19.8-.87.96-1.44.36-.45-.48-.75-1.11-1.18-1.61-.34-.4-.79-.7-1.19-1.05-.08.07-.15.15-.23.22.11.3.27.59.32.9.04.24-.06.49-.1.74-.25-.04-.63,0-.74-.14-.35-.46-.61-1-.96-1.62-1.15,1.15-2.12.42-3.15-.44-2.47-2.06-5.33-1.94-8.23-1.28-3.02.69-6.01,1.49-9.01,2.22-3.32.81-6.52.08-9.64-.97-1.52-.51-1.82-1.4-1.49-3.23-1.87,1.4-1.77,3.96.25,5.06,1.01.55,2.09.97,3.13,1.47.38.18.73.41,1.26.72-.76.17-1.39.18-1.88.45-1.07.61-2.06,1.35-3.08,2.06-1.21.85-2.31,1.92-3.63,2.54-3.4,1.58-6.61.41-8.41-2.97-.11,1.89.71,3.16,2.06,4.12,2.02,1.43,4.37,1.91,6.77,2.19.83.1,1.67.13,2.54.2-2.27,2.87-9.6,2.6-12.61-.5-.04,1.36.54,2.34,1.47,3.12,2.02,1.7,4.41,2.5,7,2.78.87.09,1.74.19,2.62.29-.84,1.37-3.5,2.25-5.72,1.97-2.24-.28-3.96-1.39-5.34-3.26.19,3.01,2.73,5.52,5.71,5.8,2.93.27,5.48-.7,7.58-2.67,2.55-2.39,4.94-4.94,7.49-7.33,4.92-4.61,10.6-7.89,17.23-9.38.77-.17,1.56-.27,2.35-.27.52,0,1.03.27,1.54.42-.02.07-.05.14-.07.22-1.37.25-2.78.39-4.11.78-5.83,1.75-11.01,4.68-15.39,8.9-3.08,2.97-5.99,6.11-9.01,9.15-.34.34-.87.6-1.34.68-3.56.58-7.12,1.2-10.7,1.61-4.13.47-8.31.56-12.31,1.86-2.74.89-4.9,2.28-6.36,4.22h59.17c-.17-1.31-.45-2.64-.99-3.82-1.29-2.87-1.02-5.69-.12-8.52.27-.86.92-1.59,1.42-2.44-.24-.71-.67-1.56-.81-2.46-.34-2.17,1.68-3.91,3.64-3.19.31.11.58.35,1.01.62-.55.15-.9.22-1.24.33-1.19.4-1.83,1.24-1.94,2.49-.24,2.66,1.52,5.92,3.89,7.12,3.17,1.6,2.73,1.9,2.32,4.41-.05.32-.05.65-.09,1.22.76-.18,1.6-.13,1.93-.52.29-.35.01-1.17-.03-2.03.38.32.72.53.95.82.43.55.75,1.19,1.22,1.69.27.29.79.53,1.15.48.25-.03.48-.58.63-.94.37-.92.66-1.86,1.03-2.78.17-.4.24-.67-.14-1.03Z"/>
  <path class="cls-1" d="M17.25,97.85s-.04,0-.05.03v3.34s.02.03.05.03h1.33c.43,0,.75.07.95.21.25.17.38.66.38,1.46v4.74c0,.52-.16,1.05-.49,1.59-.29.49-.94.9-1.95,1.25v.13c.94.33,1.58.76,1.92,1.3.34.4.51,1.06.51,1.98v5.68c0,.59-.08,1.02-.24,1.28-.09.28-.54.42-1.35.42h-1.06s-.04.02-.05.05v3.08s.02.03.05.03h20.25s.03,0,.03-.03v-9.33s0-.03-.03-.03h-5.09l-.03.03c0,1.18-.11,2.59-.33,4.22,0,.37-.13.79-.41,1.28-.29.5-.95.76-1.98.76h-1.33c-.07,0-.16,0-.27-.03-.38-.16-.57-.42-.57-.78.02-3.41.03-5.62.03-6.65v-.03h4.98l.05-5.71h-4.98l.03-5.94c0-.61.42-.91,1.27-.91h1.81c.67,0,1.1.3,1.3.91.05,0,.14,1.58.24,4.74,0,.02.02.03.05.03h5.28s.03,0,.03-.03v-9.07s0-.03-.03-.03h-20.33Z"/>
  <path class="cls-1" d="M92.32,110.15c-.25-.03-.54-.12-.87-.26-.56-.26-.95-.57-1.18-.93-.23-.36-.34-.88-.34-1.58v-4.69c0-.54.08-.94.24-1.2.16-.26.51-.39,1.05-.39h1s.03,0,.03-.03v-3.28s0-.03-.03-.03h-11.04s-.03,0-.03.03v3.28s0,.03.03.03h1c.34,0,.61.05.81.16.33.14.49.67.49,1.59v4.74c-.04.17-.07.34-.11.49-.07.43-.32.87-.73,1.3-.51.43-1,.7-1.49.78l.03.13c.05-.02.23.04.54.18.31.14.67.42,1.08.83.38.52.59.99.62,1.41,0,2.15-.25,3.7-.76,4.64-.74,1.18-1.6,1.77-2.57,1.77s-1.7-.23-2.23-.69c-.03-.03-.07-.04-.09-.07-.29-.31-.51-.63-.68-.94-.5-.85-.76-2.35-.76-4.48,0-.09,0-.19.03-.31.2-.75.54-1.29,1.03-1.64.15-.15.31-.28.47-.37.18-.1.36-.18.56-.23v-.18c-.2-.07-.38-.15-.56-.24-.41-.22-.75-.5-1.01-.85-.36-.57-.54-1.14-.54-1.69v-4.53c0-.61.06-1.04.19-1.3.13-.33.5-.49,1.11-.49h1.03s.03,0,.03-.03v-3.28s0-.03-.03-.03h-12.45s-.03,0-.03.03v3.28s0,.03.03.03h1.03c.31,0,.58.05.81.16.33.16.49.7.49,1.64v4.8c0,.17-.06.43-.19.78-.24.61-.56,1.05-.96,1.32-.41.27-.67.41-.8.43v.05c-.21-.05-.42-.1-.62-.18-.76-.28-1.3-.73-1.62-1.36-.09-.61-.23-1.28-.41-2.01-.24-.94-.52-1.81-.87-2.61-1.16-2.48-2.8-4.31-4.93-5.47-1.91-.94-3.74-1.41-5.49-1.41h-.68c-1.14,0-2.38.22-3.74.65-1.37.43-2.61,1.13-3.71,2.08-.76.75-1.31,1.36-1.65,1.82-.7.96-1.27,2.03-1.7,3.23-.4,1.18-.67,2.21-.81,3.1,0,.38-.2.79-.59,1.22-.24.26-.54.48-.92.65-.38.16-.72.26-1.03.31v.13c.25.03.56.13.92.29.65.37,1.1.85,1.35,1.46,0,.99.16,2.24.49,3.75.22.87.51,1.75.89,2.63,1.21,2.59,3.19,4.48,5.96,5.68.7.28,1.4.51,2.08.7v.18c-1.24.38-2.26,1.02-3.03,1.9-.31.28-.51.7-.62,1.28.05.05.91.66,2.57,1.82.32-.5.81-.76,1.46-.76h.24c.85,0,1.96.44,3.33,1.33,1.46,1.04,2.72,1.56,3.76,1.56,1.14,0,2.1-.49,2.9-1.46.72-.82,1.28-1.7,1.68-2.66-.02,0-.87-.5-2.54-1.51h-.03c-.11.23-.27.43-.49.63-.45.35-.9.52-1.35.52-.65,0-1.52-.34-2.6-1.02-1.01-.7-1.72-1.16-2.14-1.41v-.29h.08c2.4,0,4.68-.73,6.85-2.19.6-.4,1.28-1.04,2.06-1.93.58-.78,1.07-1.62,1.49-2.5.34-.78.66-1.72.95-2.81.27-1.49.41-2.6.41-3.31,0-.35.24-.75.73-1.2.41-.37.94-.6,1.57-.7h0c.18.09.4.22.71.43.43.3.74.79.92,1.45.07,0,.18.87.33,2.61.18,1.16.37,2.08.57,2.74.23.78.5,1.47.81,2.06.33.59.64,1.08.95,1.46.38.47.92.99,1.62,1.56,1.32,1.06,3.07,1.74,5.21,2.05.87.12,1.8.19,2.8.19,3.41,0,5.91-1.36,7.5-4.09.41-.73.79-1.63,1.11-2.71.43-1.29.65-3.08.65-5.4v-.13c0-.1.05-.3.16-.57.14-.4.43-.8.87-1.2.43-.4.88-.63,1.35-.68v-.08ZM54.77,119.5c-.42,1.34-1.22,2.01-2.41,2.01-.67,0-1.22-.17-1.65-.52-.38-.31-.65-.8-.81-1.46-.36-2.1-.54-4.75-.54-7.95,0-.02,0-.04.03-.08.31-.31.63-.55.97-.7.29-.12.58-.21.87-.26l.03-.13c-.23-.03-.47-.1-.7-.18-.34-.09-.74-.34-1.19-.76,0-1.44.05-2.84.16-4.2,0-.64.11-1.36.33-2.14.36-1.27,1.16-1.9,2.38-1.9.94,0,1.61.35,2.03,1.04.18.33.35.83.51,1.49.22,1.49.33,3.29.33,5.4-.09.23-.34.49-.76.78-.38.23-.86.39-1.43.49v.1c.05,0,.17.02.35.05.85.26,1.46.67,1.84,1.22,0,1.09,0,2.71.03,4.85,0,1.34-.12,2.28-.35,2.84Z"/>
  <path class="cls-1" d="M160.67,110.28c-.05,0-.2-.03-.43-.08-.92-.28-1.54-.69-1.87-1.22-.18-.24-.3-.61-.35-1.09-.34-1.58-.7-2.79-1.08-3.62-.01-.03-.04-.08-.05-.11-.23-.55-.57-1.17-1.03-1.87-.34-.49-.78-1.02-1.3-1.62-.41-.42-.81-.78-1.19-1.09-.56-.42-1.09-.76-1.6-1.02-.32-.15-.64-.27-.95-.39-.52-.2-1.03-.37-1.53-.5-.95-.25-1.87-.38-2.76-.38h-.68c-1.37,0-2.83.3-4.38.91-2.02.76-3.73,2.2-5.12,4.3-.5.78-.98,1.81-1.44,3.08-.14.47-.27.95-.38,1.42-.09.37-.17.73-.24,1.1,0,.47-.3.96-.89,1.49-.34.26-.71.43-1.09.54-.3-.14-.6-.37-.89-.67-.45-.56-.74-1.25-.87-2.08v-4.33c0-.5.04-.89.13-1.17.09-.42.45-.63,1.08-.63h1s.05,0,.05-.03v-3.34s-.02-.03-.05-.03h-10.67s-.03,0-.03.03v3.23c0,.09.02.13.05.13h1c.36,0,.65.07.87.21.23.19.35.65.35,1.38v9.88h-.19c-.13-.31-.96-2.09-2.49-5.34-.14-.3-.28-.6-.43-.92-.45-.95-.94-2.01-1.49-3.18-1.62-3.49-2.48-5.3-2.57-5.42h-11.53v-.1s0-.03-.03-.03h-13.32s-.03,0-.03.03v3.28s0,.03.03.03h1.44c.41,0,.72.08.92.23.25.16.38.8.38,1.93v4.27c0,.1-.02.27-.05.49-.16.7-.42,1.18-.78,1.46-.34.37-.88.62-1.62.76v.21c.94.26,1.57.64,1.9,1.15.38.43.57,1.13.57,2.08v5.66c0,.94-.09,1.51-.27,1.72-.11.26-.58.39-1.41.39h-1.06s-.03,0-.03.03v2.97s0,.03.03.03h23.93s.03,0,.03-.03v-3.1s0-.03-.03-.03h-1.08c-.05,0-.1,0-.15-.01-.38-.03-.64-.14-.77-.35-.09-.06-.15-.3-.19-.69-.04-.35-.06-.83-.06-1.45v-8.6s0-.03.03-.03h.16l1.59,3.35.63,1.33,2.14,4.5c.3.65.56,1.22.81,1.75,1,2.17,1.53,3.3,1.58,3.36h9.61s.03,0,.03-.03v-11.02c0-.23.16-.69.49-1.38.34-.61.87-1.05,1.56-1.34.93.51,1.41,1.3,1.45,2.4-.02.05-.03.11-.03.18v.03s.05.09.05.16c.15,1.25.3,2.15.46,2.68.18.76.45,1.56.81,2.4.43.96.95,1.82,1.54,2.61.32.42.87.96,1.65,1.64,2.2,1.63,4.76,2.45,7.69,2.45,1.48,0,2.97-.25,4.47-.76,2.65-.97,4.61-2.67,5.87-5.08.41-.75.81-1.75,1.19-3.02.18-.68.34-1.59.49-2.74.07-.94.12-1.41.14-1.41.23-.64.68-1.14,1.33-1.49.22-.12.54-.23.98-.31v-.13ZM107.8,119.45c0,.52-.05.92-.14,1.2-.11.42-.45.63-1.03.63h-1.06s-.03,0-.03.03v.1h-.98s-.02,0-.03,0c-.59,0-.96-.05-1.1-.16-.38-.16-.57-.65-.57-1.49v-6.59c0-.09.03-.21.08-.37.05-.83.37-1.46.95-1.88.36-.23.75-.43,1.16-.6v-.18c-.72-.23-1.25-.55-1.6-.96-.36-.42-.56-1.01-.59-1.77v-4.77c0-.52.08-.92.24-1.2.16-.26.51-.39,1.06-.39h1.38v.16s0,.03.03.03h.97c.45,0,.77.09.95.26.2.21.3.72.3,1.54v4.2c0,.09-.03.26-.08.52-.25.92-.63,1.58-1.14,1.98-.41.31-.84.51-1.27.6v.13c.52.14,1,.41,1.44.81.22.21.4.47.56.76.2.37.37.81.49,1.32v6.1ZM148.89,118.7c-.4,1.77-1.25,2.66-2.57,2.66-.67,0-1.2-.15-1.6-.44-.4-.3-.69-.78-.87-1.46-.38-2.15-.57-4.62-.57-7.4v-.13c.22-.47.66-.88,1.33-1.23.29-.12.5-.21.65-.26v-.16s-.1-.04-.35-.13c-.78-.28-1.31-.68-1.6-1.2,0-.57.04-1.36.11-2.38.04-.58.09-1.22.16-1.95.02-.43.14-1.02.38-1.75.36-1.15,1.13-1.72,2.3-1.72.5,0,.95.1,1.33.31.45.26.81.81,1.08,1.64.02.06.04.14.06.21.18.72.27,2.25.27,4.61v.73c0,.07,0,.18.03.34-.31.42-.62.7-.95.86-.47.23-.79.35-.97.36v.18c.07,0,.24.03.51.1.58.23,1.05.63,1.41,1.2,0,.85,0,2.51.03,4.98,0,.83-.05,1.5-.16,2.01Z"/>
  <path class="cls-1" d="M181.86,115.7c-.36-1.01-.97-1.89-1.8-2.68-.33-.31-.69-.61-1.1-.89-1.21-.75-1.81-1.41-1.81-1.98,0-.4.23-.78.68-1.15l-.11-.1c-.59.05-1.08.08-1.46.08-.76,0-1.45-.08-2.08-.22-.73-.16-1.38-.42-1.95-.77-.63-.38-1.42-.95-2.35-1.69-.08-.05-.13-.12-.2-.18-.56-.47-.86-1.16-.86-2.09,0-.43.07-.82.19-1.18.05-.13.1-.26.17-.39.1-.19.21-.37.34-.54.13-.13.27-.25.4-.35.4-.3.8-.46,1.19-.46h.08c.41,0,.82.15,1.22.44.19.14.33.36.42.66,0,0,0,.01,0,.02.18.82.29,1.57.34,2.25.02.3.04.58.04.85,0,.03,0,.05.03.05h.13s1.39,0,1.39,0l5.92-.02s.03-.02.03-.05v-7.43s0-.04-.03-.05l-3.95.03c-1.46-.45-3.05-.68-4.76-.68h-1.08c-2.4,0-4.52.35-6.36,1.04-.58.23-1.16.55-1.76.96-1.13.9-1.95,1.97-2.46,3.19-.43,1.02-.65,2.14-.65,3.38v.13c0,1.29.68,2.52,2.03,3.7.7.52,1.06,1.03,1.06,1.54-.02.5-.25.88-.7,1.12l.05.08c.14-.02.41-.03.78-.03h.3c2.06,0,3.88.51,5.47,1.54.02.01.04.02.06.03,2.59,1.45,3.9,2.9,3.9,4.35,0,.3-.05.69-.16,1.2-.43,1.34-1.2,2.01-2.3,2.01-.78,0-1.46-.55-2.06-1.64-.43-.99-.65-1.82-.65-2.48,0-.07-.02-.11-.05-.13l-6.85-.05s-.04.02-.05.05v7.22s.02.03.05.03l4.76.05c1.46.35,3.38.56,5.75.64,2.37.08,4.58-.41,6.63-1.47,2.05-1.06,3.4-2.22,4.05-3.49.27-.85.41-1.62.41-2.29v-.52c0-.27-.03-.55-.08-.84-.05-.25-.11-.51-.19-.78Z"/>
  <path class="cls-2" d="M25.18,92.21c-.74-.03-1.24-.17-1.51-.42s-.41-.78-.41-1.58v-4.08c1.3,0,2.28-.03,2.95-.09s1.32-.22,1.98-.49c.88-.38,1.5-.89,1.88-1.52.38-.63.57-1.3.57-2.02,0-1.47-.49-2.51-1.46-3.12-.97-.6-2.39-.91-4.25-.91h-7.03v.55c.71.08,1.19.22,1.44.44.25.22.37.73.37,1.55v9.67c0,.78-.12,1.29-.37,1.54s-.73.4-1.45.45v.55h7.28v-.55ZM23.26,79.52c0-.3.09-.5.28-.6.19-.1.5-.15.93-.15.95,0,1.59.31,1.92.92s.5,1.42.5,2.41c0,1.46-.34,2.41-1.03,2.85-.43.28-1.3.43-2.6.45v-5.87Z"/>
  <path class="cls-2" d="M38.63,92.21c-.77-.03-1.28-.18-1.54-.44-.26-.27-.38-.78-.38-1.55v-4.28h0l5.1,6.83h4.56v-.52c-.2-.01-.37-.05-.5-.1-.14-.05-.26-.17-.38-.34l-4.64-6.22c.78-.14,1.52-.47,2.22-.98.92-.68,1.37-1.62,1.37-2.81,0-1.61-.88-2.72-2.62-3.34-.9-.31-2.08-.46-3.54-.46h-7.03v.55c.75.06,1.23.18,1.44.35.32.25.48.8.48,1.64v9.67c0,.81-.14,1.34-.41,1.58s-.78.38-1.51.42v.55h7.38v-.55ZM36.71,79.68c0-.33.09-.57.27-.72.18-.15.56-.22,1.15-.22,1.07,0,1.81.42,2.22,1.25.23.49.35,1.16.35,2.01,0,1.38-.31,2.26-.92,2.64-.62.38-1.64.58-3.07.6v-5.56Z"/>
  <path class="cls-2" d="M60.69,88.22h-.61c-.68,1.49-1.47,2.5-2.35,3.04s-2.02.81-3.41.81c-.74,0-1.23-.08-1.47-.25-.24-.17-.36-.48-.36-.94v-5.29c1.24,0,2.11.25,2.59.76s.8,1.39.96,2.63h.55v-7.38h-.55c-.23,1.24-.57,2.09-1.01,2.56s-1.28.69-2.53.68v-5.06c0-.41.09-.69.27-.83.18-.14.61-.21,1.28-.21,1.76,0,2.97.26,3.63.78.67.52,1.14,1.48,1.41,2.89h.53v-4.41h-12.59v.55c.63.04,1.07.12,1.31.25.42.22.63.65.63,1.28v10.58c0,.63-.2,1.05-.61,1.28-.26.15-.71.23-1.33.26v.55h12.77l.89-4.55Z"/>
  <path class="cls-2" d="M66.66,92.21c-.93-.04-1.52-.22-1.79-.56-.27-.34-.41-.87-.41-1.6v-9.88h.1l5.41,12.59h.59l5.36-12.85h.16v10.68c0,.66-.16,1.09-.49,1.29-.33.2-.81.3-1.46.33v.55h7.26v-.55c-.74-.03-1.25-.17-1.52-.42s-.41-.78-.41-1.58v-9.67c0-.84.14-1.37.41-1.59s.78-.35,1.52-.41v-.55h-5.51l-4.27,10.11h-.18l-4.3-10.11h-5.51v.55c.73.06,1.23.18,1.51.37s.43.58.43,1.17v10.38c0,.58-.12,1.01-.37,1.3-.25.29-.79.44-1.62.44v.55h5.11v-.55Z"/>
  <path class="cls-2" d="M89.87,92.21c-.68,0-1.19-.1-1.54-.31-.34-.21-.51-.62-.51-1.23v-10.58c0-.65.21-1.08.64-1.3.26-.13.73-.2,1.41-.23v-.55h-7.64v.55c.65.03,1.11.11,1.37.24.42.22.63.65.63,1.29v10.58c0,.65-.22,1.08-.66,1.31-.27.14-.71.21-1.33.22v.55h7.64v-.55Z"/>
  <path class="cls-2" d="M96.2,92.21c-.39,0-.73-.04-1.01-.13-.5-.14-.76-.41-.76-.79,0-.26.21-.71.62-1.34.25-.35.72-.98,1.41-1.87l.82-1.04,2.22,3.36c.17.27.29.5.36.69.07.19.1.34.1.44,0,.28-.16.46-.48.56-.21.06-.63.1-1.27.13v.55h7.44v-.55c-.39-.06-.7-.19-.93-.4-.23-.2-.6-.73-1.1-1.59l-4.06-6.14c1.86-2.41,3.06-3.91,3.61-4.5.55-.59,1.3-.94,2.24-1.03v-.55h-5.46v.55c.5.02.86.06,1.07.13.36.11.53.33.53.64,0,.26-.12.58-.36.96-.24.38-.97,1.37-2.19,2.95l-2.09-3.15c-.11-.16-.19-.31-.25-.43-.06-.12-.09-.25-.09-.37,0-.29.12-.48.35-.55s.7-.14,1.4-.17v-.55h-7.56v.55c.36.02.67.12.91.3.24.18.52.5.84.97l4.21,6.36-3.71,4.82c-.33.42-.69.72-1.08.9-.24.11-.64.21-1.19.31v.55h5.46v-.55Z"/>
</svg>