<?xml version="1.0" encoding="UTF-8"?>
<svg id="Capa_1" data-name="Capa 1" xmlns="http://www.w3.org/2000/svg" viewBox="0 0 200 200">
  <defs>
    <style>
      .cls-1 {
        fill: #005d2f;
      }

      .cls-1, .cls-2 {
        font-family: CenturyGothic, 'Century Gothic';
        font-size: 13.55px;
      }

      .cls-3 {
        fill: #003c1a;
        font-family: CenturyGothic-Bold, 'Century Gothic';
        font-size: 14.97px;
        font-weight: 700;
      }

      .cls-4 {
        fill: #fff;
      }

      .cls-5 {
        fill: #e72887;
      }

      .cls-6 {
        letter-spacing: -.07em;
      }

      .cls-6, .cls-7 {
        fill: #3aaa35;
      }
    </style>
  </defs>
  <g>
    <path class="cls-7" d="M185.63,85.88h-35.44c-4.96,0-8.98,3.3-8.98,7.38v35.56h44.42c4.96,0,8.98-3.3,8.98-7.38v-35.56h-8.98Z"/>
    <path class="cls-4" d="M156.82,115.8c.46-.13.16-.5.32-.78.11.08.23.16.37.26.04-.14.08-.29.12-.47.09.15.17.29.25.42.03,0,.06-.01.09-.02.01-.23.02-.45.03-.69.14-.06.28-.11.44-.18.05.13.09.26.15.43.1-.09.17-.15.18-.15.29.11.53.19.76.3.09.04.14.16.21.23.13.13.25.37.39.37.16,0,.32-.19.46-.32.24-.11.48-.26.73-.3.18-.03.39.09.67.17.01-.03.05-.12.09-.21.09.06.13.07.15.09.18.27.4.37.71.18.08-.05.23,0,.35,0,.06,0,.13.02.18,0,.53-.26,1.06-.28,1.61-.06.12.05.28,0,.41,0,.14-.06.28-.16.42-.16.4-.01.73-.18,1.08-.34.37-.16.72-.14.9.03.29-.26.87-.32,1.1-.06.17.19.21.49.33.73.05.1.13.21.23.26.22.11.31.28.27.51-.07.45.2.77.5,1.01.37.29.5.66.54,1.09.2,1.87-.37,3.67-.52,5.51-.04.51-.05,1.02,0,1.53.01.15.23.34.39.42.39.18.42.51.42.85,0,.33-.04.68.27.9.18.13.39.23.61.3.19.06.4.07.59.05.44-.03.71.18.99.49.16.18.44.33.68.35.44.04.89,0,1.33-.06.28-.04.41-.21.23-.5-.13-.21-.26-.42-.39-.63-.34-.56-.68-1.12-1.01-1.68-.02-.03-.03-.07-.03-.1.08-1.15-.34-2.22-.6-3.31-.17-.72-.07-1.42-.02-2.13.06-.84.03-1.65-.27-2.46-.25-.66-.45-1.34-.25-2.06.18-.66.29-.7.87-.47.22-.14.41-.27.69-.45.04-.19.18-.39.53-.13.04.03.16.02.16,0,.12-.29.37-.17.57-.21.06-.01.15-.02.16-.05.09-.37.37-.32.65-.38.12-.02.2-.29.32-.47-.02,0,.03,0,.1.03.05-.29.19-.49.52-.52.06,0,.15-.18.15-.28.01-.24.08-.36.38-.19-.05-.15-.08-.25-.13-.43.18.09.29.14.39.19.05-.27.11-.55.17-.87.08.06.14.1.27.19-.06-.24-.09-.42-.13-.59.02-.01.05-.03.07-.04.07.06.15.12.26.2v-.59c.1.09.18.15.26.22.02,0,.04-.02.06-.03-.04-.16-.08-.32-.12-.48.04-.03.08-.05.12-.08.06.09.11.19.2.35.01-.18.02-.29.03-.43.09.07.17.13.29.23-.02-.13-.02-.2-.05-.26-.2-.42-.22-.77.23-1.06.27-.17.17-.5.18-.76,0-.15-.03-.29-.04-.4.21-.02.38-.04.54-.06-.03-.19-.06-.39-.09-.61.06-.02.17-.05.3-.1-.16-.23-.3-.43-.48-.71.18.02.27.03.4.05-.11-.19-.2-.35-.29-.52.03-.03.06-.06.09-.09.18.17.36.33.55.51.16-.35-.34-.46-.3-.8.17-.09.37-.21.58-.33-.04-.02-.09-.08-.13-.08-.42.02-.45-.27-.34-.53.14-.34.17-.65.06-1.01-.06-.21.03-.43.41-.33-.1-.13-.16-.21-.24-.32.18-.25.36-.49.1-.85-.17-.23-.2-.56-.3-.88.35-.18.12-.48-.02-.71-.13-.23-.22-.42-.15-.69.02-.09,0-.24-.06-.3-.35-.34-.17-.71,0-.99.22-.33.59-.55,1.03-.49.8.1,1.05-.03,1.39-.78.01-.03.02-.08.04-.09.48-.29.35-.7.24-1.12-.03-.1-.04-.24,0-.3.3-.41,0-.7-.2-1-.2-.29-.41-.57-.62-.85-.21-.29-.09-.5.17-.62.52-.25.77-.71.99-1.19.24-.52-.08-1.01-.65-.96-.32.03-.66.13-.95.28-.38.2-.72.28-1.08.02-.03-.02-.06-.04-.09-.05-1.24-.11-2.5-.54-3.7.18-.09.05-.16.15-.25.18-.2.06-.44.18-.62.12-.92-.28-1.88-.47-2.69-1.09-.48-.37-1.11-.44-1.72-.32-.38.07-.45.22-.37.6.12.54.46.94.87,1.29.61.51,1.3.87,2.08,1.06.2.05.4.14.58.24.08.05.12.19.14.3,0,.04-.13.1-.21.14-.33.17-.61.37-.74.74-.07.2-.25.36-.38.54l-.56.78c-.09.21-.18.42-.27.63-.04.1-.12.21-.1.29.07.2-.05.29-.14.43-.34.54-.87.72-1.43.86-.13.03-.25.11-.37.21-.08-.06-.14-.29-.34-.04-.04.05-.18.04-.27.03-.38-.02-.75-.06-1.12-.09-.04,0-.07-.06-.13-.11.09-.06.17-.12.28-.19-.12,0-.21,0-.3,0-.13,0-.27-.03-.4-.03-.15,0-.37-.07-.45,0-.42.36-.95.36-1.44.45-.22.04-.48-.07-.59-.35-.11-.26-.26-.49-.38-.71-.27.16-.51.33-.78.43-.08.03-.25-.09-.33-.19-.07-.08-.08-.21-.11-.3-.41-.08-.68.04-.69.53-.15-.13-.24-.22-.34-.31-.23.16-.4.19-.68.02-.24-.14-.65-.05-.96.04-.24.07-.39.1-.61-.04-.27-.17-.59-.27-.9-.37-.2-.07-.35,0-.27.32-.41-.03-.84-.18-1.15-.05-.3.13-.44-.02-.66-.08-.05-.02-.13.02-.19.04-.04.02-.07.08-.11.08-.59.05-1.17.14-1.76.14-.51,0-1.02-.18-1.53-.19-.34,0-.68.18-1.02.2-.4.02-.8-.04-1.22-.06.02.05.04.12.04.12-.24.1-.5.32-.69.27-.48-.13-.7.11-.92.45-.02.04-.11.04-.17.05-.55.06-1.02.27-1.45.63-.18.14-.46.16-.7.24.03.05.06.1.07.12-.41.23-.82.47-1.22.7.07.15.21.31.18.42-.05.13-.23.22-.36.33.15.21.03.39-.15.5-.18.11-.39.15-.59.23,0,.03.02.06.03.09.1-.01.19-.02.34-.04-.07.46-.19.9-.18,1.34,0,.35-.18.74.12,1.08.05.05.03.2,0,.29-.1.21-.22.41-.36.66.11-.07.19-.11.28-.16.15.64-.08,1.79-.48,2.46.26.16.24.54-.04,1.3.06.09.14.17.13.21-.09.29-.2.57-.32.85-.11.26-.37.53-.33.75.11.58-.37,1.06-.21,1.63.05.16.06.33.11.58,0,0,.08.07.17.15-.05.1-.1.2-.17.34h.38c-.09.64,0,.9.37,1-.22.41-.42.82-.66,1.2-.35.56-.5,1.12-.46,1.82.06,1.09-.09,2.2-.15,3.3-.07,1.22-.14,2.43-.19,3.65-.02.38,0,.76.02,1.14,0,.1.1.22.18.27.39.22.47.39.4.84-.03.18-.04.38-.01.56.06.42.26.65.68.67.57.03,1.14,0,1.72-.02.11,0,.21-.09.28-.12-.38-1.03-.76-2.03-1.1-3.04-.1-.3-.16-.62-.16-.93,0-1.8.12-3.59.76-5.3.2-.52.48-1.02.73-1.52.06-.12.18-.22.28-.31.19-.16.37-.21.46.14.03-.13.07-.25.12-.42.06.15.11.27.19.46.12-.28.21-.49.32-.75.09.1.15.16.24.26.05-.2.1-.36.15-.57.08.11.14.19.23.3.05-.21.1-.4.15-.64.12.1.19.17.29.25.04-.13.07-.24.1-.36.31.15.31-.07.34-.27.04-.23.07-.47.12-.78.14.12.18.16.22.19.25-.36.5-.7.81-1.13.19.72-.02,1.33-.21,1.94-.13.42-.34.82-.48,1.24-.25.76-.16,1.49.23,2.2.61,1.11,1.17,2.25,1.76,3.36.25.47.56.9.79,1.37.22.45.41.92.57,1.39.15.45.25.54.71.58.15.01.35.11.43.24.14.25.24.53.31.81.08.31.24.52.57.51.48,0,.96,0,1.44-.06.41-.04.46-.23.27-.57-.21-.38-.38-.78-.6-1.15-.16-.27-.36-.5-.56-.74-.13-.16-.33-.28-.42-.46-.6-1.19-1.23-2.37-1.76-3.6-.3-.7-.44-1.48-.62-2.23-.13-.56,0-1.11.31-1.58.18-.28.33-.59.65-.8.27-.17.34-.05.47.12Z"/>
  </g>
  <text transform="translate(8.73 98.22)"><tspan class="cls-3"><tspan x="0" y="0">NÚCLEO MINERAL</tspan></tspan><tspan class="cls-2"><tspan class="cls-6" x="34.43" y="15.04">P</tspan><tspan class="cls-7" x="41.45" y="15.04">ARA OVINOS</tspan><tspan class="cls-5" x="126.36" y="15.04"> </tspan></tspan><tspan class="cls-1"><tspan x="126.36" y="30.08"> </tspan></tspan></text>
</svg>