<?xml version="1.0" encoding="UTF-8"?>
<svg id="Capa_1" data-name="Capa 1" xmlns="http://www.w3.org/2000/svg" viewBox="0 0 200 200">
  <defs>
    <style>
      .cls-1 {
        fill: #b91918;
      }

      .cls-2 {
        fill: #142c36;
      }

      .cls-3 {
        fill: #fff;
      }
    </style>
  </defs>
  <path class="cls-2" d="M55.67,96.23c0-32.92,26.77-59.68,59.68-59.69,32.91,0,59.68,26.77,59.68,59.69s-26.76,59.67-59.68,59.68v-3.49c30.98-.05,56.13-25.21,56.19-56.19-.06-30.98-25.21-56.14-56.19-56.2-30.98.06-56.14,25.21-56.19,56.2.05,30.97,25.21,56.13,56.19,56.19v3.49c-32.92,0-59.68-26.77-59.68-59.68"/>
  <path class="cls-2" d="M168.6,96.23c0,29.41-23.84,53.25-53.25,53.25s-53.25-23.84-53.25-53.25,23.84-53.25,53.25-53.25,53.25,23.84,53.25,53.25"/>
  <path class="cls-3" d="M154.31,96.23c0,21.51-17.44,38.96-38.96,38.96s-38.96-17.44-38.96-38.96,17.44-38.96,38.96-38.96,38.96,17.44,38.96,38.96"/>
  <path class="cls-2" d="M141.06,67.52s-.69-.18-.85-.18-.63.12-.75.23c-.12.12-.27.27-.32.32-.05.05-.49.25-.6.25s-.5,0-.57-.08c-.07-.07-.53-.27-.65-.4-.12-.12-.87-.72-1-.72s-.35-.11-.35-.11l-.49-.1s-.29-.13-.37-.2c-.08-.07-.75-.53-1.14-.38-.4.14-.72.47-.84.59-.12.12-.43.28-.59.28s-.62-.18-.79-.34c-.17-.17-.94-.3-1.45-.3s-1.68-.06-1.88,0c-.2.07-1.92.46-2.18.46s-1.43.33-1.5.39c-.07.06-.92.44-1.04.56-.12.12-.54.34-.84.4-.31.06-1.11.08-1.45.15-.33.06-1.79.28-2.1.39-.31.11-1.92.54-2.13.63-.21.09-1.21.57-1.31.68-.11.11-.89.26-1.1.26s-2.22.27-2.8.27-1.36-.09-2.34-.16c-.97-.07-6.29-.22-6.63-.28-.34-.06-3.29-.49-3.91-.59-.62-.1-3.92-.11-4.55-.01-.63.1-1.97.87-2.25,1.16-.29.29-1.31,2.29-1.42,2.8-.11.52-.49,2.36-.49,3.13s-.1,1.37-.21,1.78c-.11.4-.27,2.25-.22,2.7.05.44.25,1.86.35,2.04l.07.32s-1.08,1.3-1.28,1.6c-.19.29-1.38,1.31-1.69,1.44-.3.13-.3.52-.2.7,0,0,.14-.65.53-.65,0,0,.43-.16.5-.23,0,0-.1.32-.25.48-.16.16-.64.61-.64.84s.12.68.05.84c-.07.16-.99,1.05-.99,1.51v.4s.26-.44.44-.44c0,0,.16.23,0,.47-.16.24-.09.31-.09.31,0,0,.18-.42.3-.55.13-.13.14-.24.29-.29.15-.05.23-.13.23-.13l.42-.18s-.08.33-.36.41c0,0,.55-.17.71-.71.16-.54.46-.83.46-.83,0,0,.11.13.11.26s.02-.48.1-.72c.08-.23.29-.57.29-.57l.14-.14s.36-.93.41-1.26c.05-.33.5-1.68.69-1.87.19-.19.12-.13.12-.13,0,0,.44,1.77.39,2.11-.05.34-.27,1.54-.82,2.18-.55.65-.6.76-.6.96s0,2.23.1,2.5c.1.27.12,2.62.07,3.04-.05.42-.58,1.98-.58,2.05v.2l.06-.06h.13s.26.16.21.21c-.05.05-.2.27-.2.34s-.08.28-.08.28c0,0,.03.52,0,.55-.03.03-.09.57-.09.57l.25.71s1.58.34,1.87.34.71-.16.71-.16v-.08l.07-.07.39-.06s.74-.2.64-.41c-.11-.21-.85-1.07-.85-1.07l-.18-.39-.14-.18-.1-.3s-.41-1.39-.26-2.38c.15-.99.28-1.52.28-1.52,0,0,.44-.8.67-1.23.23-.44.94-1.63,1.07-2.21.13-.59,1.83-1.37,2.07-2.44l.2-.81.15-.15.22-.13.07.15s.32,1.02.23,1.57c-.09.55-.41,1.3-.55,1.43-.13.13-.34.47-.34.68s.13.85.38,1.32c.25.48,1.18,3.42,1.18,3.8s-.02.81-.02.81l.06.21h.08v.17l-.1.39v.28l.1-.09-.06.47s-.07,1.29,0,1.37c.07.07,1.82.28,1.9.28s.38-.05.38-.05l.23-.11.23-.08s.5-.2.58-.28c.08-.08-.35-1.14-.63-1.41-.28-.28-.64-.98-.64-1.12s-.15-.85-.15-.91-.05-.47-.05-.47c0,0-.27-2.64-.16-2.99.11-.35.45-.85.62-1.02.17-.17.33-1.35.33-1.69s.05-.39.05-.39l.08-.13s1.3-1.45,1.22-2.47c0,0,.46,0,.7.12.24.11,1.78.82,1.93.97.15.15.99.42,1.02.45.04.03.52.14.66.14s.99.23,1.09.33c.11.1.5.65.76.76.26.11.64.3.68.33.04.04.33.33.33.33,0,0,.35.24.45.24s.27-.17.27-.17l-.12-.12h.28s-.19-.55-.19-.55c0,0-.24-.46.12-.69.37-.23,2.4-.08,2.78-.26.39-.18,2.79-.92,3.2-.84.42.08,1.61.26,1.68.33.07.07.47.47.47.47l.12.45s-.11,1.14.09,1.55c.2.42.6,1.84.6,2.1s.03.44.03.44l.08.42.23.68v-.13s.28.35.28.4c0,.04-.04,1.23-.16,1.49-.12.25-.53,1.55-.37,2.13.15.59.21.65.21.65v.37l-.06.85.04.19s1.07.64,1.27.69c.2.05,1.19-.09,1.19-.09l.62-.4h.17s-.44-.97-.53-1.05c-.09-.09-.09-.26-.09-.26l.12-.12-.13-.22-.18-.41s-.5-3.28-.26-4.09c.24-.81.98-1.14.93-2.14-.05-1,.04-1.75.04-1.75v-.28l.08-.08h.36l.27.14s.26.61.3.79c.04.18.38,1.59.38,2s.11.64.11.64l.08.08.16.25v-.13s.07.73.07.79-.08.87-.08.87c0,0-.32,1.56-.32,1.73v.24l.05.22.1.1.06-.05.18.28s-.23,1.13-.3,1.4c-.06.26-.02.81.03.86.05.05.15.35.15.35,0,0,1.47.62,2,.54.54-.08.78-.33.78-.33l.41-.26s.57-.35.51-.51c-.05-.16-1.13-1.66-1.2-1.72-.06-.06-.26-.49-.26-.69s-.16-2.01-.21-2.19c-.05-.18-.15-.89.02-1.24.17-.35.34-.89.44-1.42.11-.53.6-1.91.8-2.2.2-.29,1.87-1.36,2.01-2.72.14-1.35,1.21-2.37,1.42-2.75.2-.38.51-1.43.51-1.43l.11-.3s.49-.61.49-.75.18-.93.18-.93c0,0,.32-1.35.67-1.8.36-.44,1.19-1.4,1.19-1.4l.24-.29.14.14.22.09.28.06s1.47.03,1.89-.4c.42-.42,1.14-.46,1.41-.46h.94l.62-.08.19-.19.04-.13.17-.05s.98-.04.98-.23.32-.55.24-.62c-.08-.08-.25-.25-.25-.25,0,0,.04-.78.04-.88s.24-.41.06-.6c-.18-.18-.86-.69-1.18-1.29-.32-.61-.44-.86-.44-.86l-.18-.31h.38s-.18-.28-.18-.28v-.74c0-.06.07-.21.07-.21v-.13l.33.22-.04-.19.09.09s.71-.16.96-.78c.25-.63.81-.8.88-.87.07-.07.82-.76-.1-1.01"/>
  <path class="cls-1" d="M168.54,155.06s0,0,0,0h0s-.1,0-.1,0l-.04-.02c-.19-.04-.37-.13-.77-.29-3.21-1.39-14.51-7.64-14.93-18.99v-.03c0-.06,0-.13,0-.2-.12-5.59,1.44-10.06,3.04-13.14.8-1.54,1.6-2.73,2.21-3.54l.23.16-.23-.17c.53-.7.9-1.1,1-1.2l.08-.09h.12s.03-.02.04-.02h.03c.54.01,1.58.5,3.35,1.02,1.76.52,4.15,1.06,7.07,1.13,1.15.03,2.18.03,3.06,0,.07-.02.1,0,.1,0,3.98-.13,5.97-.7,6.55-.83.1-.02.19-.03.28-.03.31,0,.58.08.77.17.09.04.16.08.22.11h.04s.08.09.08.09h0s4.33,4.75,4.33,4.75c0-.02,0-.03,0-.05,0-.21-.07-.43-.2-.66-.07-.11-.13-.19-.19-.26l-3.64-4-.08-.08-.07-.05c-.05-.03-.17-.11-.34-.19-.31-.14-.63-.21-.95-.2-.13,0-.24.02-.34.04l-.21.05c-.75.18-2.74.66-6.31.77-1,.03-2.04.03-3.09,0-2.35-.07-4.63-.43-6.97-1.12-.77-.23-1.43-.45-1.95-.63-.86-.3-1.22-.41-1.53-.4h-.34s-.21.24-.21.24c-.1.1-.48.52-1.01,1.23-.82,1.09-1.58,2.29-2.25,3.59-1.47,2.85-3.2,7.47-3.08,13.3v.22c.42,12.84,14.56,19.08,15.16,19.34.8.36,1.02.35,1.09.35h.02v-.37Z"/>
  <path class="cls-1" d="M158.2,119.05h0s0,0,0,0Z"/>
  <path class="cls-3" d="M175.21,85.08c.05-.48-.02-.96-.19-1.41.04-.55-.08-1.1-.33-1.59l-.31-.6c-.12-.23-.27-.44-.43-.64-1.26-1.43-2.76-2.27-4.45-2.49-.4-.05-.8-.03-1.19.08,0,0-2.11.56-2.15.57-.23.06-.46.15-.67.27-.49.26-.86.47-1.14.63-.63.17-1.17.46-1.61.83-.33.12-.65.3-.96.53-.39.15-.69.37-.99.74-.06.06-.5.46-2.44,1.85-.15.11-.29.23-.42.36-.28.19-.52.43-.72.71-.08.11-.15.23-.22.35-.19.12-.49.31-.96.55-.6.32-1.05.81-1.33,1.39-.06.04-.14.08-.22.13-.26.15-.49.32-.7.54-1.29,1.32-2.42,2.56-3.4,3.73-.16-.26-.34-.49-.51-.7-1.32-2.24-4.07-6.53-7.87-5.53l-.88.23c-.17.05-.34.11-.51.18-2.4,1.11-5.23,3.43-8.57,7.04-2.18-2.69-4.44-2.85-6.14-2.39-.45.12-.87.35-1.22.66-.24-.12-.5-.22-.78-.28l-.26-.05c-.47-.1-1.06-.05-1.52.07-.09.03-.19.06-.28.09-.19,0-.37-.01-.55-.03-.37-.04-.73,0-1.09.09-.24.06-.48.16-.7.28-.12.06-.62.31-2,.68-.42.11-.82.31-1.16.59-.57.47-.98.8-1.23.97-.43.21-.8.51-1.08.87-.42-.07-.85-.05-1.27.06-.08.02-.16.05-.24.07-1.34.48-2.4,1.57-3.23,3.32-.1.21-.18.43-.23.66-.16.75-.28,1.23-.36,1.56-.14-.36-.33-.69-.6-.98-1.03-1.09-2.42-1.58-3.9-1.38-.55-.77-1.41-1.33-2.46-1.55-.47-.1-.96-.09-1.42.04l-.86.23c-3.23.86-6.47,3.01-9.64,6.4-2.36,2.21-4.67,5.33-7.04,9.44-.98,1.62-1.64,3.16-1.97,4.61-7.6,3.69-10.6,4.91-11.77,5.31,2.1-2.51,3.3-3.96,3.96-4.94,2.71-2.58,4.01-4.15,4.66-5.31.59-.44,1.22-1.02,1.61-1.75,1.01-.72,1.92-1.5,2.73-2.34.78-.35,1.67-.9,2.76-1.7.55-.4.94-.97,1.13-1.6.05-.03.11-.07.17-.12l.57-.06c.16-.02.51-.1.66-.14,1.3-.34,2.22-1.49,2.28-2.84,0-.14.02-.25.03-.35,1.27-.64,1.97-2.1,1.59-3.53-.07-.25-.17-.54-.34-.84,0-.3-.04-.62-.13-.93l-.21-.79c-.44-1.66-1.98-2.71-3.74-2.55-.17.02-.33.05-.5.09l-.98.26c-.3.08-.6.12-.89.13-.25,0-.5.04-.74.1-4.01,1.06-8.48,3.41-13.68,7.19-.1.07-.19.15-.29.24l-2.73,2.54c-3.42,2.59-7.14,6.65-11.36,12.42-.08.11-.15.22-.21.33-2.04,3.7-2.8,6.86-2.31,9.64.02.09.03.17.06.25l.14.52c1.02,3.22,2.51,6.13,4.44,8.66.75,1.85,2.82,4.23,8.54,3.85.2-.02.39-.05.58-.1.18-.05.36-.11.52-.19.14-.07.27-.13.38-.18.29,0,.59-.03.87-.1.26-.07.51-.17.75-.31,1-.58,2.8-1.61,3.39-3.23.19-.11.39-.23.59-.36.84-.53,1.35-1.42,1.42-2.38.23-.59.28-1.25.1-1.9l-.05-.17s.25-.06.35-.08c.17-.04.33-.1.49-.17,1.16-.53,2.29-1.05,3.19-1.66.08-.01.15-.03.23-.05.17-.05.34-.11.5-.18.83-.39,2.65-1.25,3.3-2.79.24.33.48.63.74.92.83,1.69,2.76,3.11,6.03,2.44.06-.01.23-.06.29-.07,1.61-.43,3.06-1.52,4.43-3.32,1.77,2.36,3.76,3.26,5.94,2.68.75-.2,1.44-.67,1.91-1.35.21-.12.43-.25.68-.4.49-.31.86-.73,1.11-1.22.7-.51,1.26-1.16,1.52-2.06,0-.02.01-.04.02-.05.38-.38.65-.86.8-1.38.2.25.4.51.64.77.11.12.23.23.36.34.07.11.17.33.33.68.59,1.41,2.13,2.17,3.61,1.78.58-.15,1.07-.44,1.47-.82,1.66-1.1,2.13-2.31,2.18-3.25.22-1.18.36-1.74.43-1.98.36-.62.5-1.37.36-2.1.27-1.1.57-2.72,1.02-5.19.02-.12.04-.24.05-.36,0-.15.02-.28.03-.39.3-.54.45-1.17.38-1.82.04-.3.06-.6.04-.89.34-1.03.97-2,1.99-3.06.49-.58,1.01-1.04,1.55-1.43l-.9,3.39c-1.82,5.21-1.88,6.22-1.6,7.29.11.4.29.77.55,1.1.49.63,1.09,1.41,1.83,2,.16.28.36.53.59.75.26.24.52.44.79.61.9,1.06,2.19,2.2,4.1,1.69.32-.08.62-.22.9-.4,1.36-.89,2.6-2.53,3.85-5.07,1.33-2.48,2.59-4.51,3.78-6.05-.61,1.71-1.14,3.28-1.57,4.69-.17.55-.18,1.14-.03,1.69l.1.36c.48,1.8,2.26,2.84,4.07,2.36l.14-.04c.71-.19,1.33-.63,1.75-1.24.23-.34.47-.71.69-1.1.25,0,.5-.04.76-.1l.14-.04c.82-.22,1.36-.65,1.74-1.2.34-.18.64-.42.89-.72.43-.5.83-1,1.15-1.53.27-.23.5-.51.68-.83.06-.11.11-.2.16-.28.57-.46.96-1.12,1.09-1.84.18-.35.3-.74.34-1.14.07-.13.13-.26.18-.4.04-.12.09-.23.13-.35.17.37.35.75.55,1.16.14.28.32.54.53.76.2.22.37.39.48.53.19.4.46.75.8,1.04,3.02,2.57,5.67,2.57,7.49,2.09.18-.05.35-.11.51-.19h.02c.2-.03.4-.06.59-.11.67-.18,1.23-.51,1.66-.96.14-.08.27-.17.4-.27.49-.15,1.13-.37,1.92-.66.51-.19.94-.51,1.27-.91.38-.27.69-.62.9-1.02.63-.45,1.17-1.02,1.41-1.76.18-.09.35-.2.51-.32.63-.37,1.11-.95,1.34-1.63.02-.02.04-.05.06-.07.66-.45,1.42-1.14,1.72-2.11.27-.37.43-.74.51-1.12.31-.64.4-1.39.21-2.13l-.07-.25c-.24-.91-.86-1.61-1.65-1.99.61-.55,1.1-1.1,1.48-1.68,3.81-4.16,4.73-5.54,5.14-6.4.21-.46.32-.96.29-1.47-.04-.73-.02-1.5.06-2.28M157.81,100.13l-.41.11-.72.1c-.13.02-.26.04-.38.08-.11.03-.21.06-.31.1.06-.22.09-.42.1-.63.15-.21.6-.81.61-.81.45.41.91.72,1.38.95-.09.03-.17.07-.26.1"/>
  <path class="cls-1" d="M84.47,95.94c.54,0,1.08-.09,1.63-.23l.98-.26c.27-.03.43.07.48.28l.21.79c.07.27-.02.45-.27.51l-.98.26.2.76c.94-.09,1.45-.01,1.52.24-1.07.28-1.65,1.27-1.72,2.96l-.19.05-1.25.13c-1.57.89-2.27,1.63-2.12,2.22-1.21.89-2.12,1.41-2.73,1.57-1.14,1.31-2.57,2.46-4.3,3.44l.05.19.57-.15c.05.17-.4.57-1.34,1.2-.23.92-1.78,2.73-4.65,5.43.04.15-1.59,2.18-4.88,6.1-1.96,2.82-3,4.43-3.12,4.82.1.38,1.15.38,3.15.01l2.94-.78c.13-.03.21.01.24.14.22-.19.4-.31.55-.35,1.66-.44,5.97-2.35,12.92-5.72l.19-.05c-.71.98-1.01,1.68-.9,2.1-1.04.84-1.68,1.29-1.94,1.36-.07-.25-.24-.34-.51-.27.12.44-.25.89-1.1,1.34l.05.19.57-.15c.4-.11.83-.37,1.28-.78l.06.22c.07.27-.52.7-1.76,1.28-.29-.06-.5-.07-.65-.03.07.25-1.01.89-3.25,1.91l-.19.05-.21-.79-.6.16.11.41.29.33-1.55.41-.46-.08c.14.53-.24.91-1.15,1.15l-.06-.22c-.19.21-.43.35-.73.43l.05.19.41-.11.05.19-.39.95.19-.05.36-.3.29.33.1.38-.08.46.98-.26.1.38-.6.16c-.13.03-.2-.01-.24-.14-.18.18-.49.33-.93.45.12.24.27.33.48.28l.98-.26.11.41c-1.1.7-1.96,1.13-2.57,1.29l.06.22.57-.15.1.38c.1.36-.58.96-2.03,1.79-.29-.06-.5-.07-.65-.03-.08.02-.46.19-1.12.5-3.28.22-5.15-.54-5.61-2.27-1.86-2.35-3.28-5.05-4.25-8.11l-.1-.38c-.36-2.05.3-4.59,1.97-7.63,4.06-5.54,7.67-9.5,10.86-11.88l2.85-2.65c4.84-3.52,9.06-5.75,12.67-6.71M74.67,125.33l.1.38,1.2-.32c.25-.07.35-.23.28-.48l-1.58.42ZM76.8,124.56l.05.19.57-.15c.25-.07.34-.23.27-.48l-.37.1c-.22.19-.4.31-.52.34M83.38,120.28l.22-.06.06.22c.07.25-.04.41-.31.49l-.19.05-.05-.19c-.03-.28.06-.46.27-.51"/>
  <path class="cls-1" d="M100.26,99.38l.86-.23c.38.08.6.24.66.48.07.27.3.96.69,2.07-.11.03-.24.37-.4,1.03-.69.18-1.67.97-2.92,2.35-.83.22-1.84,1.01-3.05,2.38-.18-.03-.32-.04-.41-.01l.2.19.04.14-.98.79c-.19-.05-.32-.06-.4-.04l.18.22c-.9,1.66-1.99,3.18-3.27,4.55.02.09-.92,1.66-2.82,4.7l.1.36c.96-.51,3.16-2.49,6.59-5.94.16-.04.6-.55,1.29-1.53,1.14-1.05,2.51-2.86,4.1-5.45.97-1.32,2.19-2.87,3.64-4.65.62-.16,1.13-.03,1.53.39l.03.11-.12.45.03.11c.03.12.18.21.46.27-.05.19-.06.33-.04.42.24.55.38.86.4.94-.14.04-.26.25-.36.63l.1.36.34.3-4.57,6.08c.14.54-.29,1.41-1.3,2.6.04.15-.38.88-1.26,2.18l-.92,2.47c.12.45.08.82-.12,1.1l.14-.04c1.28-.34,2.75-1.08,4.4-2.23l.07.25.25-.07-.18-.22-.03-.11.5-.13.25.05c-.06-.21.15-.44.62-.67.04.15.23.18.56.09.02.09,0,.15-.1.17l.2.21c.02.14-.75.87-2.33,2.19l.07.25.61-.16.07.25c-.52.36-.75.64-.7.84l.03.11.39-.1.06.25c-.16.04-.73.55-1.7,1.52l.03.11.36-.1s.2-.1.47-.25l.03.12c-.08.26-.56.61-1.44,1.03l.13.5c-.48.31-.83.49-1.04.54l-.5.13c.11.41.04.64-.2.71-1.37.36-2.81-1.09-4.31-4.38l-.26-1-.25.07c-1.17,1.12-1.87,1.83-2.07,2.15-.42.14-.73.44-.95.91.41-.11.63-.08.68.09-1.08,1.6-2.15,2.53-3.2,2.81l-.11.03c-1.58.32-2.5-.05-2.78-1.1-.85-.86-1.65-2.05-2.4-3.58l-.07-.25c-.45-1.7.09-3.82,1.62-6.34,2.25-3.92,4.45-6.88,6.59-8.87,2.8-3.02,5.55-4.89,8.25-5.61M88.78,114.65l.13-.04c.17-.05.23-.15.18-.32l-.14.04c-.16.08-.22.18-.18.32M93.66,118.64l.11-.03c.16-.04.23-.15.18-.31l-.11.03c-.16.08-.22.18-.18.32M93.94,119.22l.13-.04c.17-.04.23-.15.18-.31l-.14.04c-.16.07-.22.18-.18.31M94.61,107.32c.08.16.18.22.32.18l.11-.03c-.04-.17-.15-.23-.32-.18l-.11.03ZM99.2,114.65l.1.38c.13-.31.25-.48.37-.51l-.06-.23c-.16.2-.29.32-.41.35M104.42,116.56l.04.14.5-.13-.04-.14-.5.13Z"/>
  <path class="cls-1" d="M120.99,93.95c.53.05,1.11.06,1.73.03l.19-.17.11-.03.26.05-.05.26.03.11.92.63c-.03-.15.03-.25.17-.29.15-.03.25.03.28.17l.03.12c-.71.43-1.18.67-1.4.73.07.14.16.2.28.17.13-.11.23-.18.31-.2l.06.23c-.3.08-.43.2-.39.37,1.19-.15,1.86-.25,2.01-.29-.02.25-.21.42-.59.52l-1.15.31.06.23c.67-.1,1.22-.2,1.64-.31l-.05.25c.15-.04.23-.02.25.05.22-.22.43-.35.64-.41l.59-.04.03.11c.03.12-.05.27-.24.45l-.26-.08c-.13.13-.24.21-.33.23-.05-.17-.14-.23-.29-.19.08.32-.89.82-2.92,1.52l.03.11c.17-.04.26-.03.28.05l.2-.17.11-.03c.07-.02.12,0,.14.08l.2-.17.68-.18c.17-.03.27.03.31.16l.03.11-2.65.7c-2.04.54-3.82,1.71-5.35,3.5-1.42,1.46-2.35,3.06-2.77,4.8.1.38.06.83-.12,1.36.07-.02.12,0,.14.08-.21.06-.35.63-.42,1.71-.7,3.82-1.12,5.77-1.26,5.86l.04.14c.11.12.18.22.2.31-.19.13-.47,1.22-.85,3.28.06.24-.22.57-.86.98l-.34.09c.04.15-.01.24-.17.28-.44-1.05-.85-1.67-1.22-1.88-.94-1.06-1.52-1.97-1.72-2.74.03-3.01.18-5.34.47-7,.51-2.03,1.61-4.69,3.29-8,.1-.04.35-.96.75-2.76.47-.98.96-1.57,1.49-1.75.39.38.8.51,1.22.4-.04-.16.22-.4.79-.69l.19.19-.16.41.11-.03c1-.56,1.47-.92,1.43-1.11l-.57.15-.12-.45c.18-.05.8-.5,1.85-1.36,1.24-.33,2.14-.65,2.7-.96M109.92,105.49l.11-.03c.07-.02.44-.65,1.1-1.89l-.06-.23c-.3.21-.68.92-1.15,2.15M111.1,102.97l.03.11c.15-.04.2-.14.16-.29l-.04-.13c-.14.07-.19.17-.16.31M122.13,98.69l.03.11.45-.12-.03-.11-.45.12ZM122.91,97l.03.11.57-.15-.03-.11-.57.15Z"/>
  <path class="cls-1" d="M141.91,88.58l.88-.23c1.18-.31,2.73,1.18,4.65,4.48.11-.03.32.27.63.9-.05,1.22-.65,3.3-1.81,6.22l.2.21.03.11c-.27.31-.38.57-.33.77-.11.03-.35.45-.73,1.26l.18.22.07.25-.29-.07-.11.03.07.25.22-.18.03.11c-.58.88-1.09,1.95-1.54,3.22l-.5.13-.28-.07.04.14c.13.13.21.24.23.33-.16.07-.22.18-.18.32l.04.13.25-.07.07.25-.14.04-.29-.07-.15.45c.13.11.22.27.27.46-.2.05-.5.44-.9,1.16l-.25.07-.07-.25c.29-.08.52-.4.69-.98-.26.07-.42-.02-.48-.26l-.11.03c.06.6,0,.92-.16.96l-.36.1c.2-.83.81-2.72,1.82-5.66l-.25.06-1.45,3.58-.28-.07c-.14.13-.25.21-.33.23l-.04-.13c-.02-.09-.02-.22.02-.39-.15-.31-.28-.46-.38-.43-.15.12-.26.19-.33.21-.02-.07-.08-.1-.17-.08l-.6,1.76.14-.04.21-.2c.06.16.16.22.32.18l.36-.1c.16-.04.23-.15.18-.31l.29.07.32-.35.11-.03c.11.42-.18,1.16-.87,2.22l-.03-.11.05-.28-.06-.25-.12.03.1.36c-.16.04-.27-.02-.31-.18l-.03-.11c-.06-.21.08-.38.4-.52-.04-.17-.28-.19-.7-.08-.16.85-.35,1.3-.56,1.36l.18.22c-.3.08-.56.59-.78,1.54.11.13.19.24.21.33l-.21.2-.25.06-.07-.25.25-.07c-.12-.15-.19-.26-.21-.36l-.32.35c-.08.02-.12,0-.14-.08l-.22.18-.28-.05c.15.56-.23,1.5-1.12,2.82l-.14.04c-.17.04-.27-.02-.32-.18l-.1-.36c.96-3.1,2.34-6.93,4.15-11.49l.97-2.92c-.04-.17.21-.85.76-2.07-.04-.15.15-.78.56-1.9l-.03-.11-.11.03c-1.35,1.12-2.98,2.7-4.87,4.75-2.2,2.47-3.48,4.01-3.84,4.6-1.71,1.83-3.52,4.53-5.43,8.1-1.02,2.06-1.96,3.38-2.83,3.95l-.11.03c-.15.04-.58-.38-1.28-1.26-.12.03-.33-.09-.63-.37l-.16-.61c-.3.08-.94-.51-1.92-1.77-.11-.42.41-2.29,1.57-5.6l2.4-9.04c.35-2.76.84-4.44,1.47-5.04l.11-.03c1.28-.34,2.56.61,3.83,2.84.07-.02.24.11.49.4.05.2-.06.94-.33,2.22l.11-.03c4.59-5.54,8.25-8.95,11-10.23M140.32,109.64c.06.16.16.22.32.18-.02-.07,0-.12.08-.14l.07.25c.03.11-.06.26-.27.46l-.14.04-.13-.5-.25.07c.11.42.08.66-.08.7l.03.11.5-.13c-.26.96-.44,1.45-.53,1.47l-.14.04-.07-.25.25-.6-.1-.36-.25.07c.09.33,0,.53-.25.6l-.18-.22c.3-1.06.67-1.66,1.12-1.78M139.19,109.4c.02.09.01.23-.03.42.14-.13.26-.21.35-.24l-.07-.25-.25.07ZM139.34,107.5l.07.25.13-.03c.17-.04.23-.15.18-.32l-.03-.11c-.14.12-.26.19-.35.21M141.57,109.31l.11-.03c.17-.01.28.05.32.18l.04.14c.04.22-.3.75-1.03,1.61l-.13.04-.03-.14c.21-.49.45-1.09.74-1.79M140.44,107.08l.36-.1c.05.17-.02.27-.18.32l-.11.03-.07-.25ZM140.82,108.05l.07.25c.14-.14.26-.22.35-.24l-.03-.11-.38.1ZM141.4,103.64l.11-.03c.29-.25.39-.55.3-.88-.12.03-.25.33-.41.91M142.48,107.73l.11-.03c.42-.42.62-.69.58-.81l-.04-.14c-.56.21-.78.54-.66.97M141.88,102.44l.07.25c.15-.22.3-.35.43-.38l-.06-.25-.25.07c-.16.06-.22.17-.18.32M143.23,105.55l.03.11.25-.07-.1-.36c-.16.06-.22.16-.18.32M143.25,103.14l.28.05c.52-1.01.96-2.37,1.32-4.08-.24.26-.77,1.6-1.59,4.03M144.86,98.72l.03.11.14-.04c.17-.04.23-.15.18-.32l-.07-.25c-.12.03-.22.19-.28.49"/>
  <path class="cls-1" d="M166.95,81.96l.03.11.22-.18,1.9-.5c.94.12,1.79.62,2.55,1.48l.3.6c-.09.32-.11.6-.04.83.05.18.13.34.24.47-.09.93-.12,1.84-.07,2.73-.4.85-2.01,2.8-4.82,5.86-.54.94-1.72,1.92-3.53,2.97l-2.27,1.14c-1.8.48-3.19-.5-4.17-2.94l-.17-.63c-.21.06-1.1.92-2.68,2.6-.2.05-.33.27-.38.66.09-.02.15,0,.17.08-1.01,1.32-1.49,2.07-1.43,2.27l.2.21c.03.1-.31.87-1.01,2.3l.18.22c-.17.39-.22.71-.15.99.12.47,1.77.57,4.95.31.09-.02.13-.07.11-.15l.91-.12.77-.2c1.7-.66,3.22-1.38,4.56-2.16l.04.14c.31-.23,1.05-.65,2.23-1.27l.07.25-.25.07.04.14.63-.17c-.09-.35-.06-.54.11-.59l.04.14-.07.28c.09-.02.15,0,.17.1l.21-.2.38-.1.07.25c-.08.02-.35.19-.81.5l.07.25.11-.03c.14-.13.26-.21.35-.24l.04.14c.04.17-.39.41-1.28.73.05.18-.22.39-.81.62l.1.38.14-.04c.45-.47.91-.78,1.38-.9l.03.11c.04.15-.34.44-1.13.86.05.17-.02.27-.18.31-.19-.05-.33-.06-.42-.03-.06.37-.52.67-1.38.9l.21.24.03.11-.25.06.04.14.63-.17c.05.2-.45.51-1.52.94.08.3-.27.67-1.06,1.11l-.29-.07c-.3.21-.43.38-.39.52l2.05-.95.04.13c.04.17-.63.52-2.02,1.07l.04.14.75-.2.07.25c-.42.11-.61.25-.57.42l.03.11c-.96.35-1.66.59-2.12.71l-.36.1-.32.35-.63.17c.07.26-.03.42-.28.49-.09.02-.23.01-.42-.03l-.71.33-.14.04c-1.43.38-2.96-.12-4.59-1.5-.06-.24-.41-.69-1.04-1.35-.78-1.6-1.29-2.86-1.54-3.78l-.2-.75c-.63-2.38,1.82-6.42,7.35-12.1,1.1-.61,1.59-1.11,1.49-1.49,1.57-.84,2.31-1.44,2.21-1.8l.67-.03.14-.04c.16-.04.22-.16.18-.34l-.14.04c-.13.13-.23.21-.33.23l-.07-.25c1.71-1.23,2.68-1.99,2.91-2.27l.11-.03.07.27.27-.07-.21-.24c.23-.23.42-.38.57-.42l.67-.03c-.02-.35.18-.58.62-.69l.03.11c.18-.13.77-.46,1.77-1M154.7,93.86l.11-.03c.16-.04.23-.15.18-.31l-.11.03c-.16.07-.22.18-.18.31M155.78,92.36l.07.25.25-.07c.16-.04.23-.15.18-.31l-.04-.14-.12.03c-.14.14-.26.21-.35.24M155.75,91.69l.04.14.12-.03c.14-.14.26-.21.35-.24l-.07-.25c-.17.22-.31.35-.43.38M156.7,91.71l.11-.03c.16-.04.23-.15.18-.31l-.12.03c-.16.08-.22.18-.18.32M159.51,91.64c-.19-.05-.33-.06-.42-.03l-.79,1.03c.23.15.87.16,1.9.03.9-.24,2.79-1.46,5.65-3.65.02.09.08.12.17.1-.05-.18.56-.93,1.83-2.25.79-.81,1.17-1.27,1.13-1.39-.09.03-.15,0-.17-.08-1.13.3-3.16,1.47-6.09,3.5-.45.12-.98.53-1.57,1.22l-1.56,1.24c.04.17.02.26-.07.29M158.38,89.9l-.36.65.11-.03c.22-.33.4-.52.53-.55l-.04-.14-.25.07ZM158.44,88.14c.07.16.19.22.34.18l.11-.03c-.04-.17-.15-.23-.31-.18l-.14.03ZM164.38,103.33l.11-.03.07.25c-.09.02-.2.1-.35.24l-.04-.14c-.01-.17.06-.28.21-.32M163.62,84.2l.38-.1-.07-.27-.13.04c-.16.08-.22.19-.18.34"/>
  <path class="cls-1" d="M147.04,135.18c0,8.98-7.28,16.26-16.26,16.26s-16.26-7.28-16.26-16.26,7.28-16.26,16.26-16.26,16.26,7.28,16.26,16.26"/>
  <rect class="cls-1" x="130.77" y="118.92" width="42.81" height="32.53"/>
  <path class="cls-3" d="M131.26,147.41c-6.74,0-12.23-5.49-12.23-12.23s5.49-12.23,12.23-12.23c4.27,0,8.17,2.18,10.42,5.83l-3.74,2.31c-1.44-2.34-3.94-3.74-6.67-3.74-4.32,0-7.83,3.51-7.83,7.83s3.51,7.83,7.83,7.83c3.15,0,5.98-1.88,7.22-4.79l4.05,1.72c-1.92,4.54-6.35,7.47-11.27,7.47"/>
  <path class="cls-3" d="M186.04,134.92l-.6-.43s-1.13-.87-1.27-2.94v-.2c-.1-1.78,1.18-3.21,1.57-3.55,1.8-.89,2.53-2.65,2.45-3.98-.03-.76-.24-1.48-.63-2.16-.18-.31-.36-.54-.55-.75l-3.66-4.02c-.05-.06-.25-.25-.31-.3-.08-.08-.3-.23-.39-.3-.1-.07-.4-.28-.81-.46-.72-.33-1.47-.5-2.22-.5-.04,0-.14,0-.18,0-.35.01-.66.06-.92.12l-.28.07c-.72.17-2.42.57-5.63.68-.45.01-.91.02-1.38.02-.5,0-1.01,0-1.53-.02-2.06-.06-4.07-.38-6.16-.99-.71-.2-1.32-.41-1.84-.59l-.32-.11c-.73-.25-1.36-.46-2.32-.46h-.37s-.28.02-.28.02c-.66.03-1.28.32-1.73.8l-.35.39c-.09.09-.57.6-1.25,1.51-.9,1.2-1.75,2.55-2.53,4.03-1.64,3.16-3.56,8.3-3.43,14.78v.31c.55,13.83,14.21,20.75,17.02,22.04.95.43,1.68.63,2.35.63.04,0,.15,0,.19,0,1.28-.07,2.22-.62,3.86-1.84l.16-.12.15-.11c.66-.49,1.43-1.05,2.01-1.4.26-.15.62-.32,1.04-.52l.28-.14.26-.13c2.46-1.2,6.19-3.02,7.94-6.56.77-1.57,1.43-3.71,1.97-6.36.31-1.5.49-2.75.57-3.36l.05-.38.05-.37c.12-.91-.27-1.81-1.01-2.35"/>
  <path class="cls-1" d="M184.55,125.62c.9-.39,1.21-1.21,1.17-1.72-.01-.34-.11-.66-.28-.96-.09-.16-.18-.27-.25-.36l-3.66-4.02-.1-.1-.04-.05-.13-.08c-.05-.04-.21-.15-.43-.24-.4-.18-.83-.28-1.26-.27-.18,0-.34.03-.49.07l-.19.04c-.74.17-2.64.64-6.12.75-.04,0-.06,0-.07,0-.98.03-2,.03-3.04,0-2.29-.07-4.51-.42-6.79-1.09-.76-.22-1.4-.44-1.92-.62-.87-.28-1.25-.44-1.78-.44h-.35s-.28.02-.28.02l-.39.43c-.1.11-.51.55-1.06,1.28-.85,1.12-1.62,2.36-2.31,3.68-1.51,2.92-3.28,7.63-3.15,13.6v.22s0,.04,0,.04c.52,13.32,14.92,19.58,15.55,19.88.79.36,1.17.41,1.37.4h.03l-.02-.64h-.02c-.07,0-.29,0-1.09-.35-.6-.25-14.74-6.5-15.15-19.34v-.22c-.13-5.83,1.6-10.45,3.07-13.3.68-1.29,1.43-2.49,2.25-3.59.53-.71.92-1.13,1.01-1.23l.21-.22h.34c.3-.02.67.09,1.53.39.52.18,1.18.4,1.95.62,2.34.69,4.62,1.05,6.97,1.12,1.05.03,2.09.03,3.09,0,3.57-.11,5.56-.59,6.31-.77l.21-.05c.1-.02.22-.04.34-.04.32,0,.64.06.95.2.17.08.29.16.34.19l.07.05.08.08,3.64,4c.06.07.12.15.19.26.13.23.19.45.2.66,0,.01,0,.03,0,.05l.1.1-.11-.03c-.03.34-.19.74-.78,1.01-.72.33-3.35,2.78-3.24,6.46v.23c.24,3.51,2.29,5.09,2.53,5.26l.33.24-.05.4c-.06.46-.24,1.67-.53,3.14-.33,1.65-.91,3.97-1.72,5.62-1.27,2.6-4.44,4.13-6.76,5.25-.6.29-1.13.54-1.52.77-.82.48-1.69,1.13-2.46,1.7l-.19.14c-1.47,1.1-1.8,1.2-2.09,1.21l.02.64c.55-.03,1.02-.24,2.49-1.33l.19-.15c.77-.56,1.62-1.2,2.39-1.66.35-.21.87-.45,1.47-.74,2.32-1.13,5.64-2.67,7.07-5.55.86-1.75,1.43-4.09,1.77-5.77.3-1.48.47-2.71.54-3.18l.05-.4.05-.37-.65-.47c-.14-.11-2.04-1.51-2.25-4.78v-.21c-.18-3.33,2.43-5.71,2.84-5.85"/>
  <path class="cls-1" d="M170.84,154.09c.77-.57,1.64-1.21,2.46-1.69.4-.23.92-.48,1.52-.77,2.32-1.12,5.5-2.65,6.76-5.25.81-1.66,1.39-3.97,1.72-5.62.3-1.46.47-2.68.53-3.14l.05-.4-.33-.24c-.24-.17-2.3-1.74-2.52-5.26v-.23c-.13-3.68,2.5-6.13,3.22-6.46.58-.27.75-.67.78-1.01l-.37-.1h0c.03.26-.17.62-.57.79-.74.32-3.6,2.97-3.45,6.8,0,.08.01.16.01.24.23,3.65,2.35,5.3,2.67,5.53l.16.11-.03.19c-.04.28-.21,1.54-.53,3.11-.36,1.78-.91,3.95-1.69,5.53-1.6,3.23-6.35,4.79-8.13,5.85-.9.53-1.87,1.26-2.69,1.86-.84.6-1.38,1.05-1.87,1.12v.37c.3,0,.64-.1,2.1-1.21l.19-.14Z"/>
  <path class="cls-1" d="M153.35,135.53c0,.06,0,.12,0,.21h0c.35,10.91,11.42,17.1,14.54,18.43.29.13.54.22.64.25.02,0,.05-.02.09-.04.09-.05.21-.12.35-.21.28-.18.65-.44,1.04-.73.81-.6,1.79-1.34,2.75-1.9,1.92-1.1,6.5-2.71,7.87-5.58.73-1.49,1.28-3.63,1.64-5.39.27-1.32.43-2.42.5-2.89-.66-.52-2.56-2.35-2.78-5.88,0-.1,0-.18-.01-.27-.1-4.16,2.79-6.9,3.83-7.4.25-.14.17-.12.2-.19,0-.04-.03-.14-.07-.19-.02-.05-.05-.09-.06-.1l-3.61-3.96s-.02-.01-.03-.02c-.03-.02-.08-.05-.15-.08-.13-.06-.3-.11-.47-.11-.05,0-.09,0-.14.02-.56.13-2.66.72-6.69.85v-.06s-.04.06-.04.06c-.94.03-1.99.03-3.15,0-3-.08-5.44-.64-7.24-1.16-1.51-.46-2.68-.89-3.03-.98-.16.18-.46.53-.85,1.04-.59.78-1.37,1.95-2.15,3.45-1.56,3.01-3.09,7.38-2.97,12.84"/>
  <path class="cls-3" d="M180.13,138.72c0-1.58-.62-2.99-1.82-3.96-1.14-.94-2.51-1.46-3.97-1.46h-6.53v-2.57h10.66v-3.28h-13.94v8.98h.03v.04h1.71c7.24,0,7.34,0,8.25.03,1.42.06,2.35.9,2.36,2.19,0,1.19-1.06,2.19-2.33,2.19l-7.95.04h-2.04v3.24h5.65c1.84,0,3.35,0,4.51-.04,1.44-.03,2.75-.57,3.78-1.62l-.53-.54.53.53c1.03-1.03,1.62-2.32,1.62-3.77"/>
  <path class="cls-1" d="M21.36,108.73h-5.15v-22.58h9.11c1.05,0,2.04.21,2.97.64.93.43,1.74,1,2.43,1.72.69.72,1.23,1.55,1.63,2.51.4.95.6,1.95.6,2.99s-.2,2.04-.6,2.99c-.4.95-.94,1.79-1.63,2.51-.69.72-1.5,1.29-2.43,1.72-.93.43-1.92.64-2.97.64h-3.96v6.89ZM25.33,96.68c.31,0,.62-.08.91-.24.29-.16.55-.36.78-.61.23-.25.41-.54.54-.86.14-.32.21-.64.21-.97s-.07-.65-.21-.97c-.14-.32-.32-.61-.54-.86-.23-.25-.49-.46-.78-.61-.29-.16-.6-.24-.91-.24h-3.97v5.36h3.97Z"/>
  <path class="cls-1" d="M46.69,96.56c-.12.17-.19.34-.24.5-.02.08-.03.16-.03.24.01.07.03.15.05.24.02.07.05.15.08.24.03.08.08.17.14.25.61.84,1.25,1.72,1.94,2.65.68.92,1.37,1.85,2.06,2.78.69.93,1.36,1.84,2.03,2.74.67.9,1.3,1.75,1.88,2.54h-4.21c-.79,0-1.47-.16-2.05-.47-.58-.31-1.07-.74-1.46-1.28l-3.67-4.95c-.08-.12-.15-.24-.21-.36-.05-.13-.1-.24-.14-.33-.04-.12-.08-.22-.11-.31-.03.1-.07.22-.11.33-.04.09-.09.2-.14.32-.05.12-.11.24-.19.36l-3.58,4.91c-.42.57-.92,1.01-1.51,1.32-.58.31-1.26.46-2.04.46h-4.25l7.86-10.63c.14-.18.22-.33.25-.45.03-.12.05-.21.05-.28v-.08c0-.15-.03-.29-.09-.42-.06-.14-.14-.26-.22-.38l-7.64-10.34h4.25c.76,0,1.44.15,2.04.45.6.3,1.09.73,1.46,1.3l3.43,4.69c.07.12.14.23.19.34.05.11.1.21.14.31.04.11.08.22.13.31.02-.08.05-.18.1-.3.03-.08.07-.19.12-.31.05-.12.11-.24.2-.36l3.42-4.66c.78-1.19,1.96-1.78,3.54-1.78h4.22l-7.69,10.4Z"/>
  <path class="cls-3" d="M162.77,135.75v-.07c0-1.45-.04-2.64-.11-3.66-.08-1.19-.63-2.26-1.51-3.13-.86-.86-1.91-1.43-3.12-1.47-.64-.03-1.06-.07-1.35-.07h-.76v3.2h1.45c1.14,0,2.08.97,2.08,2.15v11.42h3.21l.03-.73c.04-.91.07-3.44.08-7.64h0Z"/>
</svg>