<?xml version="1.0" encoding="UTF-8"?>
<svg id="Capa_1" data-name="Capa 1" xmlns="http://www.w3.org/2000/svg" viewBox="0 0 200 200">
  <defs>
    <style>
      .cls-1 {
        fill: #0f395f;
      }

      .cls-2 {
        fill: #e6342b;
      }

      .cls-3 {
        fill: #1d71b8;
      }
    </style>
  </defs>
  <g>
    <g>
      <path class="cls-2" d="M12.23,93.36h5.27v22.65h6.92v4.47h-12.19v-27.11Z"/>
      <path class="cls-2" d="M38.94,108.57h-6.16v7.32h6.96v4.59h-12.23v-27.11h11.79v4.59h-6.52v6.23h6.16v4.39Z"/>
      <path class="cls-2" d="M56.36,120.08c-.76.36-2.25.64-4.06.64-6.96,0-10.26-5.67-10.26-13.39,0-10.22,5.67-14.2,10.94-14.2,1.85,0,3.14.36,3.66.72l-.89,4.43c-.6-.28-1.29-.52-2.45-.52-2.98,0-5.67,2.57-5.67,9.29s2.45,9.01,5.67,9.01c.89,0,1.89-.2,2.53-.4l.52,4.43Z"/>
      <path class="cls-2" d="M64.53,93.36v10.86h5.51v-10.86h5.27v27.11h-5.27v-11.34h-5.51v11.34h-5.27v-27.11h5.27Z"/>
      <path class="cls-2" d="M91.41,108.57h-6.16v7.32h6.96v4.59h-12.23v-27.11h11.79v4.59h-6.52v6.23h6.16v4.39Z"/>
      <path class="cls-2" d="M95.83,93.77c1.65-.32,3.74-.52,5.75-.52,2.9,0,5.51.44,7.24,2.01,1.65,1.49,2.17,3.3,2.17,5.63,0,2.9-1.45,5.51-4.18,6.76v.08c1.85.76,2.78,2.45,3.3,5.39.52,3.02,1.25,6.36,1.73,7.36h-5.51c-.36-.76-.97-3.5-1.37-6.52-.48-3.34-1.33-4.3-3.06-4.3h-.8v10.82h-5.27v-26.71ZM101.1,105.59h.97c2.29,0,3.58-1.85,3.58-4.22s-.93-3.94-3.26-4.02c-.48,0-1,.04-1.29.16v8.09Z"/>
      <path class="cls-2" d="M119.05,114.28l-1.21,6.2h-5.11l5.87-27.11h6.32l5.27,27.11h-5.11l-1.17-6.2h-4.87ZM123.43,110.18l-.89-5.67c-.28-1.65-.64-4.39-.89-6.15h-.12c-.28,1.81-.68,4.59-.97,6.15l-1.01,5.67h3.86Z"/>
      <path class="cls-2" d="M132.56,115.09c1.09.6,2.98,1.05,4.47,1.05,2.45,0,3.7-1.29,3.7-3.06,0-1.97-1.21-2.94-3.5-4.42-3.7-2.25-5.11-5.11-5.11-7.56,0-4.34,2.9-7.96,8.53-7.96,1.81,0,3.5.48,4.26.96l-.84,4.55c-.76-.48-1.93-.93-3.42-.93-2.25,0-3.34,1.37-3.34,2.82,0,1.61.8,2.45,3.7,4.22,3.62,2.17,4.91,4.91,4.91,7.76,0,4.95-3.66,8.21-8.93,8.21-2.17,0-4.26-.56-5.19-1.09l.76-4.55Z"/>
    </g>
    <path class="cls-3" d="M187.7,100.73c-.03-.54-.66-1.21-.77-2-.09-.61.12-1.36,0-1.85-.17-.71-.79-1.26-1.08-2-.46-1.19-.41-2.35-.77-3.55h-.14s0-.01,0-.02c-.26-7.75.64-15.59,1.46-21.58l.07.02c.86-4.72-.92-10.64-5.24-11.41-.74-.13-1.99.16-2.93.15-.86,0-1.84-.36-2.78-.31-1.21.06-2.39.79-3.7.93-3.55.38-8.07-.01-11.71.15-2.55.12-5.07.57-7.47.86v1.49c.31.24.61.5.85.83.64.86,1.43.93,2.19.15.53-.54,1.06-1.07,1.68-1.52.5-.36,1.02-.66,1.63-.77.79-.14,1.47.33,1.64,1.11.3,1.43-.35,2.6-1.71,3.13-.94.37-1.95.33-2.92.55-.99.23-1.95.55-2.81,1.11-.22.14-.37.31-.55.47v5.05c.12.18.22.37.37.54.91,1.04,1.73,2.15,2.24,3.46.2.52.29,1.05.22,1.62-.09.78-.11,1.58.05,2.37.35,1.72,1.52,2.27,3.06,1.39.87-.5,1.76-.91,2.74-1.13.47-.11.96-.13,1.43-.03.98.21,1.25,1.09.57,1.82-.35.37-.78.61-1.23.82-.22.1-.44.19-.65.3-.13.07-.3.12-.26.3.03.14.19.15.32.16.33.03.66.08.99.07,1.92-.01,3.82-.27,5.72-.46,1.6-.16,3.2-.16,4.77.27.43.12.83.29,1.21.53,1.07.67,1.45,1.74,1.07,3.03-.35,1.18-1.14,1.75-2.43,1.76-.69,0-1.35-.16-2-.36-2.71-.85-5.46-1.53-8.33-1.51-.83,0-1.65.13-2.43.42-.33.13-.64.29-.91.51-1.3,1.05-1.13,2.82.36,3.6.58.3,1.12.63,1.58,1.1.88.93.97,2.06.21,2.87-.77.83-2.05.85-2.99.03-.62-.53-.98-1.23-1.2-2.01-.12-.45-.28-.88-.54-1.26-.45-.68-1.06-.79-1.6-.19-.86.96-1.45,2.08-1.64,3.37,0,.05,0,.09,0,.13.24-.19.53-.38.93-.54,1.17,3.69,5.16,4.56,9.05,5.54,0,.06-.01.13,0,.2.04.31.05.64.06.99,0,.43.01.88.1,1.34.07.36.38.61.74.61.05,0,.09,0,.14-.01.4-.08.68-.47.6-.87-.06-.34-.07-.71-.08-1.1,0-.33-.02-.67-.05-1.02.73-.22,2.02-.57,2.4-.59.22,1.24-.51,2.11.46,2.31,1.02.21.54-2.18,1.08-2.47,1.31-.7,2.25,2.44,2.62,3.85.47,1.82.98,4.1,1.08,5.55.27,4.03-.97,5.16-1.54,8.32-.14.76.04,1.56-.15,2-.3.68-1.21.71-1.7,1.39-.3.41-.21,1.1-.46,1.39-.77.86-2.3.68-2.47,2.62,2.37.07,4.88.65,6.32-.46,1.06-.81,1.13-2.74,2.77-2.62-1.59,2.38,5.91.63,6.32.15.43-.5-.16-.98.31-1.85.35-.65,1.54-.77,1.7-1.23.35-1.06-.69-3.7-.77-4.93-.17-2.74.23-5.32.62-7.4.03.12,0,.31.15.31l.07-.07c0,.56-.03,1.13-.05,1.69-.05.87-.1,1.76-.02,2.65.01.16.15.29.31.29h.03c.18-.01.31-.17.29-.34-.06-.84-.02-1.72.03-2.56.03-.56.06-1.14.06-1.71l.06.07c.37-.81.26-2.11.77-2.78v.47l.13.02s0,.02,0,.03c-.02.35-.03.7-.04,1.04-.04,1.34-.08,2.61-.57,3.78-.1.25.02.54.27.64.06.03.12.04.19.04.19,0,.37-.11.45-.31.55-1.33.6-2.75.64-4.12.01-.33.02-.66.04-.99l.13.02c.09-.32-.19-1.01.16-1.08.05.36.16.67.46.77-.36-1.41.83-2.28.77-3.55ZM178.92,117.53c-.66,1.86-2.37,2.43-3.24,3.7-1.23-4.86,1.57-10.38,2.47-15.11,1.26,1.72,1.69,8.83.77,11.41ZM183.67,90.91c-.58,1.09-.99,2.35-1.36,3.65-1.83-1.97-.71-4.8-.46-7.25.09-.98-.16-2.09-.16-3.08.02-4.87,2.26-11.43,2.47-16.03.69.08.67.87.92,1.39h.07c-.81,5.92-1.69,13.63-1.48,21.31Z"/>
  </g>
  <g>
    <path class="cls-1" d="M101.56,61.04c-.18-.13-.37-.23-.57-.27-.05-.02-.09-.04-.13-.04h-.13,15.08c.92,0,1.78.11,2.57.33.79.22,1.49.51,2.1.88.49.39.85.99,1.08,1.81.23.82.35,1.74.35,2.76,0,.59-.04,1.2-.11,1.85-.07.64-.17,1.28-.29,1.92-.39,1.82-1,3.54-1.83,5.15-.83,1.61-1.8,2.7-2.92,3.29-.66.39-1.36.71-2.12.95s-1.76.37-3.03.37h-6.97l1.28-4.86h4.27c.51-.05,1-.18,1.48-.4.47-.22.86-.46,1.15-.73.41-.36.76-.91,1.04-1.64.28-.73.49-1.51.64-2.34.07-.49.13-.96.18-1.42s.07-.89.07-1.28-.02-.72-.05-1c-.04-.28-.1-.47-.2-.57-.24-.22-.52-.38-.82-.47-.3-.1-.63-.15-.97-.15h-4.2l-5.81,23v.15s-.04.04-.04.05v.06c0,.17.02.32.07.46.05.13.11.25.18.34.02.05.05.09.07.13.02.04.05.08.07.13.07.12.2.21.38.27.18.06.38.12.6.17.05,0,.09,0,.13.02.04.01.08.02.13.02h-6.94s-.05,0-.09-.02c-.04-.01-.07-.02-.09-.02-.19-.05-.37-.1-.53-.17-.16-.06-.3-.15-.42-.27,0-.02,0-.04-.02-.05-.01-.01-.03-.02-.05-.02,0-.02-.01-.05-.04-.07-.07-.1-.13-.19-.16-.29-.04-.1-.05-.23-.05-.4v-.22c0-.07.01-.16.04-.26l6.28-25.37c.05-.12.08-.23.09-.31.01-.08.02-.15.02-.2,0-.15-.02-.26-.07-.33-.05-.07-.1-.15-.15-.22h-.04s-.05-.08-.07-.11c-.02-.03-.05-.06-.07-.11-.07-.17-.2-.32-.38-.46Z"/>
    <path class="cls-1" d="M126.94,60.97c-.16-.06-.31-.11-.46-.16-.05,0-.09,0-.13-.02-.04-.01-.08-.02-.13-.02h6.83c.24,0,.46.02.64.05.18.04.35.1.49.2.1.07.17.16.22.26s.1.21.15.33c.05.07.08.13.11.18s.05.11.07.18l2.05,6.06,4.49-5.77c.05-.1.08-.19.11-.27.02-.09.04-.17.04-.24,0-.05,0-.1-.02-.15-.01-.05-.03-.09-.05-.11-.03-.05-.04-.1-.05-.15-.01-.05-.02-.08-.02-.11-.03-.1-.09-.18-.2-.24-.11-.06-.22-.1-.35-.13-.07-.02-.15-.04-.22-.06-.07-.01-.13-.03-.18-.05h6.53s.05,0,.07-.02c.02-.01.05-.02.07-.02h.15c.19,0,.39.04.59.13.19.08.34.21.44.38.07.1.13.21.16.34s.05.28.05.42c0,.12-.01.24-.04.34-.02.11-.06.21-.11.31l-9.31,11.46,5.04,14.39s.04.09.05.13c.01.04.03.07.05.09.05.07.1.14.15.2.05.06.1.13.15.2.1.12.24.27.44.44.05.02.13.05.24.07s.22.05.35.07l.07.04c.19.05.35.09.46.13.11.04.12.05.02.05h-6.35c-.12-.02-.23-.04-.33-.04s-.19-.01-.29-.04c-.07,0-.15,0-.24-.02-.09-.01-.18-.03-.27-.05-.05,0-.1-.01-.16-.04-.06-.03-.13-.06-.2-.11-.15-.05-.29-.13-.42-.24s-.25-.29-.35-.53l-3.07-9.17-6.61,8.03c-.1.17-.16.31-.2.42-.04.11-.05.23-.05.35,0,.1.02.19.05.29.04.1.07.2.09.29,0,.03,0,.04.02.06s.03.03.05.05c.1.17.23.33.4.48.17.15.35.23.55.26h-7.08s-.05,0-.09-.02-.07-.02-.09-.02c-.29-.05-.52-.11-.69-.18-.17-.07-.3-.19-.4-.37-.05-.07-.08-.15-.09-.22-.01-.07-.02-.15-.02-.22,0-.15.04-.3.11-.48.07-.17.17-.37.29-.58l11.54-14.02-4.2-11.76s0-.05-.02-.09c-.01-.04-.02-.07-.02-.09-.02-.1-.05-.18-.09-.26s-.08-.15-.13-.22c-.05-.02-.09-.05-.11-.09-.03-.04-.06-.07-.11-.09-.12-.12-.26-.21-.42-.28Z"/>
  </g>
</svg>